<?xml version="1.0" encoding="utf-8"?>
<!-- Generator: Adobe Illustrator 16.0.0, SVG Export Plug-In . SVG Version: 6.00 Build 0)  -->
<!DOCTYPE svg PUBLIC "-//W3C//DTD SVG 1.1//EN" "http://www.w3.org/Graphics/SVG/1.1/DTD/svg11.dtd">
<svg version="1.1" id="Layer_1" xmlns="http://www.w3.org/2000/svg" xmlns:xlink="http://www.w3.org/1999/xlink" x="0px" y="0px"
	 width="579.92px" height="579.92px" viewBox="0 0 579.92 579.92" style="enable-background:new 0 0 579.92 579.92;"
	 xml:space="preserve">
<style type="text/css">
<![CDATA[
	.st0{fill-rule:evenodd;clip-rule:evenodd;fill:#0F203F;}
]]>
</style>
<g>
	<g>
		<defs>
			<circle id="XMLID_1_" cx="289.96" cy="289.961" r="289.96"/>
		</defs>
		<use xlink:href="#XMLID_1_"  style="overflow:visible;fill:#EF3B28;"/>
		<clipPath id="XMLID_6_">
			<use xlink:href="#XMLID_1_"  style="overflow:visible;"/>
		</clipPath>
	</g>
	<g>
		<defs>
			<circle id="XMLID_3_" cx="289.96" cy="289.961" r="266.029"/>
		</defs>
		<use xlink:href="#XMLID_3_"  style="overflow:visible;fill:#0F203F;"/>
		<clipPath id="XMLID_7_">
			<use xlink:href="#XMLID_3_"  style="overflow:visible;"/>
		</clipPath>
	</g>
	<g>
		<defs>
			<circle id="XMLID_4_" cx="289.96" cy="289.96" r="246.491"/>
		</defs>
		<use xlink:href="#XMLID_4_"  style="overflow:visible;fill:#EE3C27;"/>
		<clipPath id="XMLID_8_">
			<use xlink:href="#XMLID_4_"  style="overflow:visible;"/>
		</clipPath>
	</g>
	<path id="XMLID_2_" class="st0" d="M360.951,139.689c-0.548,3.697-1.132,7.389-1.622,11.094c-0.319,2.422-0.501,4.864-0.777,7.646
		c4.35-3.476,8.283-6.616,11.903-9.509c-0.168,8.724-0.556,17.207-0.406,25.679c0.086,4.856,0.976,9.707,1.658,14.537
		c0.195,1.383,0.599,2.979,1.473,3.984c8.693,10.016,14.222,21.878,19.36,33.855c5.241,12.221,9.482,24.867,14.62,37.137
		c2.207,5.269,5.362,10.189,8.449,15.04c7.067,11.106,8.84,22.933,2.506,34.481c-5.324,9.701-15.607,11.738-25.792,11.229
		c-9.333-0.468-13.992-7.245-16.157-15.549c-1.008-3.865-2.684-5.289-6.631-6.17c-12.614-2.812-22.747-10.218-31.729-19.181
		c-4.635-4.628-8.82-9.708-13.378-14.772c-11.516,6.027-18.228,15.555-20.379,28.296c-2.518,14.91,0.257,29.283,6.073,42.9
		c3.906,9.145,8.657,18.093,14.22,26.325c8.534,12.63,12.035,26.419,11.146,41.224c-0.634,10.59-2.778,21.092-4.342,32.294
		c-8.103-1.038-15.146-1.7-22.105-2.876c-24.603-4.147-48.132-11.459-69.988-23.803c-26.198-14.795-44.565-36.229-55.389-64.246
		c-8.822-22.83-10.203-45.895-2.281-69.247c1.172-3.456,2.732-6.781,4.342-10.727c-10.492,0.964-18.198,7.072-27.815,11.913
		c1.45-3.719,2.399-6.576,3.651-9.293c7.958-17.281,20.411-31.108,34.833-43.007c11.568-9.544,24.139-17.878,36.269-26.746
		c0.714-0.522,1.445-1.022,2.884-2.038c-9.373-1.769-17.605,0.829-26.021,1.688c33.904-31.096,73.638-40.807,118.418-32.089
		c4.293-9.166,12.208-14.76,19.814-20.605c4.276-3.287,8.781-6.275,13.182-9.397L360.951,139.689z"/>
</g>
</svg>
